<!--?xml version="1.0" standalone="no"?-->
              <svg id="sw-js-blob-svg" viewBox="0 0 100 100" xmlns="http://www.w3.org/2000/svg" version="1.1">
                    <defs> 
                        <linearGradient id="sw-gradient" x1="0" x2="1" y1="1" y2="0">
                            <stop id="stop1" stop-color="rgba(140, 79, 124, 1)" offset="0%"></stop>
                            <stop id="stop2" stop-color="rgba(140, 79, 124, 1)" offset="100%"></stop>
                        </linearGradient>
                    </defs>
                <path fill="url(#sw-gradient)" d="M24.9,-32.9C30.8,-30.1,32.8,-20.7,35.2,-11.8C37.6,-2.9,40.4,5.6,37.8,12C35.3,18.4,27.5,22.7,20.3,26C13.1,29.4,6.5,31.7,-1.3,33.4C-9.1,35.2,-18.1,36.3,-22.6,32.1C-27.2,27.9,-27.2,18.3,-29.9,9.8C-32.6,1.2,-38,-6.5,-38.2,-14.4C-38.4,-22.4,-33.4,-30.7,-26.1,-33C-18.9,-35.3,-9.5,-31.6,0.1,-31.7C9.6,-31.8,19.1,-35.6,24.9,-32.9Z" width="100%" height="100%" transform="translate(50 50)" stroke-width="0" style="transition: 0.3s;" stroke="url(#sw-gradient)"></path>
              </svg>