<svg id="wave" style="transform:rotate(180deg); transition: 0.3s" viewBox="0 0 1440 140" version="1.1" xmlns="http://www.w3.org/2000/svg"><defs><linearGradient id="sw-gradient-0" x1="0" x2="0" y1="1" y2="0"><stop stop-color="rgba(196, 242, 242, 1)" offset="0%"></stop><stop stop-color="rgba(196, 242, 242, 1)" offset="100%"></stop></linearGradient></defs><path style="transform:translate(0, 0px); opacity:1" fill="url(#sw-gradient-0)" d="M0,14L30,11.7C60,9,120,5,180,23.3C240,42,300,84,360,98C420,112,480,98,540,86.3C600,75,660,65,720,56C780,47,840,37,900,44.3C960,51,1020,75,1080,84C1140,93,1200,89,1260,74.7C1320,61,1380,37,1440,25.7C1500,14,1560,14,1620,21C1680,28,1740,42,1800,56C1860,70,1920,84,1980,84C2040,84,2100,70,2160,70C2220,70,2280,84,2340,79.3C2400,75,2460,51,2520,51.3C2580,51,2640,75,2700,72.3C2760,70,2820,42,2880,42C2940,42,3000,70,3060,86.3C3120,103,3180,107,3240,93.3C3300,79,3360,47,3420,28C3480,9,3540,5,3600,23.3C3660,42,3720,84,3780,88.7C3840,93,3900,61,3960,56C4020,51,4080,75,4140,74.7C4200,75,4260,51,4290,39.7L4320,28L4320,140L4290,140C4260,140,4200,140,4140,140C4080,140,4020,140,3960,140C3900,140,3840,140,3780,140C3720,140,3660,140,3600,140C3540,140,3480,140,3420,140C3360,140,3300,140,3240,140C3180,140,3120,140,3060,140C3000,140,2940,140,2880,140C2820,140,2760,140,2700,140C2640,140,2580,140,2520,140C2460,140,2400,140,2340,140C2280,140,2220,140,2160,140C2100,140,2040,140,1980,140C1920,140,1860,140,1800,140C1740,140,1680,140,1620,140C1560,140,1500,140,1440,140C1380,140,1320,140,1260,140C1200,140,1140,140,1080,140C1020,140,960,140,900,140C840,140,780,140,720,140C660,140,600,140,540,140C480,140,420,140,360,140C300,140,240,140,180,140C120,140,60,140,30,140L0,140Z"></path></svg>